# xmcd
# 
# Track frame offsets:
#     165
#     18396
#     31701
#     48842
#     69125
#     87822
#     107458
#     126794
#     148418
#     162752
# 
# Disc length: 2368
# 
# Revision: 17
# Processed by: cddbd v1.5.2PL0 Copyright (c) Steve Scherf et al.
# Submitted via: fre:ac v1.0.31
# 
DISCID=73093e0a
DTITLE=ZZ Top - La Futura
DYEAR=2012
DGENRE=Rock/Pop
TTITLE0=I Gotsta Get Paid
TTITLE1=Chartreuse
TTITLE2=Consumption
TTITLE3=Over You
TTITLE4=Heartache In Blue
TTITLE5=I Don't Wanna Lose, Lose, You
TTITLE6=Flyin' High
TTITLE7=It's Too Easy Mañana
TTITLE8=Big Shiny Nine
TTITLE9=Have A Little Mercy
EXTD=whenI  I grabbed this cd from data base song eight has the spelling of the word too wrong, they have it spelled with only one o YEAR: 2012
EXTT0=
EXTT1=
EXTT2=
EXTT3=
EXTT4=
EXTT5=
EXTT6=
EXTT7=
EXTT8=
EXTT9=
PLAYORDER=
